<?xml version="1.0" encoding="UTF-8" standalone="no"?>
<svg
   width="142"
   height="24"
   viewBox="0 0 142 24"
   fill="none"
   version="1.1"
   id="svg20"
   sodipodi:docname="logo-white.svg"
   inkscape:version="1.1.2 (b8e25be833, 2022-02-05)"
   xmlns:inkscape="http://www.inkscape.org/namespaces/inkscape"
   xmlns:sodipodi="http://sodipodi.sourceforge.net/DTD/sodipodi-0.dtd"
   xmlns="http://www.w3.org/2000/svg"
   xmlns:svg="http://www.w3.org/2000/svg">
  <defs
     id="defs24">
    <filter
       style="color-interpolation-filters:sRGB;"
       inkscape:label="Invert"
       id="filter879"
       x="0"
       y="0"
       width="1"
       height="1">
      <feColorMatrix
         values="-1 0 0 0 1 0 -1 0 0 1 0 0 -1 0 1 -0.21 -0.72 -0.07 1 0 "
         result="fbSourceGraphic"
         id="feColorMatrix877" />
      <feColorMatrix
         result="fbSourceGraphicAlpha"
         in="fbSourceGraphic"
         values="0 0 0 -1 0 0 0 0 -1 0 0 0 0 -1 0 0 0 0 1 0"
         id="feColorMatrix923" />
      <feColorMatrix
         id="feColorMatrix925"
         values="-1 0 0 0 1 0 -1 0 0 1 0 0 -1 0 1 -0.21 -0.72 -0.07 1 0 "
         result="color2"
         in="fbSourceGraphic" />
    </filter>
    <filter
       style="color-interpolation-filters:sRGB;"
       inkscape:label="Invert"
       id="filter883"
       x="0"
       y="0"
       width="1"
       height="1">
      <feColorMatrix
         values="-1 0 0 0 1 0 -1 0 0 1 0 0 -1 0 1 -0.21 -0.72 -0.07 1 0 "
         result="fbSourceGraphic"
         id="feColorMatrix881" />
      <feColorMatrix
         result="fbSourceGraphicAlpha"
         in="fbSourceGraphic"
         values="0 0 0 -1 0 0 0 0 -1 0 0 0 0 -1 0 0 0 0 1 0"
         id="feColorMatrix927" />
      <feColorMatrix
         id="feColorMatrix929"
         values="-1 0 0 0 1 0 -1 0 0 1 0 0 -1 0 1 -0.21 -0.72 -0.07 1 0 "
         result="color2"
         in="fbSourceGraphic" />
    </filter>
    <filter
       style="color-interpolation-filters:sRGB;"
       inkscape:label="Invert"
       id="filter887"
       x="0"
       y="0"
       width="1"
       height="1">
      <feColorMatrix
         values="-1 0 0 0 1 0 -1 0 0 1 0 0 -1 0 1 -0.21 -0.72 -0.07 1 0 "
         result="fbSourceGraphic"
         id="feColorMatrix885" />
      <feColorMatrix
         result="fbSourceGraphicAlpha"
         in="fbSourceGraphic"
         values="0 0 0 -1 0 0 0 0 -1 0 0 0 0 -1 0 0 0 0 1 0"
         id="feColorMatrix931" />
      <feColorMatrix
         id="feColorMatrix933"
         values="-1 0 0 0 1 0 -1 0 0 1 0 0 -1 0 1 -0.21 -0.72 -0.07 1 0 "
         result="color2"
         in="fbSourceGraphic" />
    </filter>
    <filter
       style="color-interpolation-filters:sRGB;"
       inkscape:label="Invert"
       id="filter891"
       x="0"
       y="0"
       width="1"
       height="1">
      <feColorMatrix
         values="-1 0 0 0 1 0 -1 0 0 1 0 0 -1 0 1 -0.21 -0.72 -0.07 1 0 "
         result="fbSourceGraphic"
         id="feColorMatrix889" />
      <feColorMatrix
         result="fbSourceGraphicAlpha"
         in="fbSourceGraphic"
         values="0 0 0 -1 0 0 0 0 -1 0 0 0 0 -1 0 0 0 0 1 0"
         id="feColorMatrix935" />
      <feColorMatrix
         id="feColorMatrix937"
         values="-1 0 0 0 1 0 -1 0 0 1 0 0 -1 0 1 -0.21 -0.72 -0.07 1 0 "
         result="color2"
         in="fbSourceGraphic" />
    </filter>
    <filter
       style="color-interpolation-filters:sRGB;"
       inkscape:label="Invert"
       id="filter895"
       x="0"
       y="0"
       width="1"
       height="1">
      <feColorMatrix
         values="-1 0 0 0 1 0 -1 0 0 1 0 0 -1 0 1 -0.21 -0.72 -0.07 1 0 "
         result="fbSourceGraphic"
         id="feColorMatrix893" />
      <feColorMatrix
         result="fbSourceGraphicAlpha"
         in="fbSourceGraphic"
         values="0 0 0 -1 0 0 0 0 -1 0 0 0 0 -1 0 0 0 0 1 0"
         id="feColorMatrix939" />
      <feColorMatrix
         id="feColorMatrix941"
         values="-1 0 0 0 1 0 -1 0 0 1 0 0 -1 0 1 -0.21 -0.72 -0.07 1 0 "
         result="color2"
         in="fbSourceGraphic" />
    </filter>
    <filter
       style="color-interpolation-filters:sRGB;"
       inkscape:label="Invert"
       id="filter899"
       x="0"
       y="0"
       width="1"
       height="1">
      <feColorMatrix
         values="-1 0 0 0 1 0 -1 0 0 1 0 0 -1 0 1 -0.21 -0.72 -0.07 1 0 "
         result="fbSourceGraphic"
         id="feColorMatrix897" />
      <feColorMatrix
         result="fbSourceGraphicAlpha"
         in="fbSourceGraphic"
         values="0 0 0 -1 0 0 0 0 -1 0 0 0 0 -1 0 0 0 0 1 0"
         id="feColorMatrix943" />
      <feColorMatrix
         id="feColorMatrix945"
         values="-1 0 0 0 1 0 -1 0 0 1 0 0 -1 0 1 -0.21 -0.72 -0.07 1 0 "
         result="color2"
         in="fbSourceGraphic" />
    </filter>
    <filter
       style="color-interpolation-filters:sRGB;"
       inkscape:label="Invert"
       id="filter903"
       x="0"
       y="0"
       width="1"
       height="1">
      <feColorMatrix
         values="-1 0 0 0 1 0 -1 0 0 1 0 0 -1 0 1 -0.21 -0.72 -0.07 1 0 "
         result="fbSourceGraphic"
         id="feColorMatrix901" />
      <feColorMatrix
         result="fbSourceGraphicAlpha"
         in="fbSourceGraphic"
         values="0 0 0 -1 0 0 0 0 -1 0 0 0 0 -1 0 0 0 0 1 0"
         id="feColorMatrix947" />
      <feColorMatrix
         id="feColorMatrix949"
         values="-1 0 0 0 1 0 -1 0 0 1 0 0 -1 0 1 -0.21 -0.72 -0.07 1 0 "
         result="color2"
         in="fbSourceGraphic" />
    </filter>
    <filter
       style="color-interpolation-filters:sRGB;"
       inkscape:label="Color Shift"
       id="filter1723"
       x="0"
       y="0"
       width="1"
       height="1">
      <feColorMatrix
         type="hueRotate"
         values="119"
         result="color1"
         id="feColorMatrix1719" />
      <feColorMatrix
         type="saturate"
         values="1"
         result="color2"
         id="feColorMatrix1721" />
    </filter>
    <filter
       style="color-interpolation-filters:sRGB;"
       inkscape:label="Color Shift"
       id="filter1729"
       x="0"
       y="0"
       width="1"
       height="1">
      <feColorMatrix
         type="hueRotate"
         values="119"
         result="color1"
         id="feColorMatrix1725" />
      <feColorMatrix
         type="saturate"
         values="1"
         result="color2"
         id="feColorMatrix1727" />
    </filter>
  </defs>
  <sodipodi:namedview
     id="namedview22"
     pagecolor="#ffffff"
     bordercolor="#666666"
     borderopacity="1.0"
     inkscape:pageshadow="2"
     inkscape:pageopacity="0.0"
     inkscape:pagecheckerboard="0"
     showgrid="false"
     inkscape:zoom="8.3943662"
     inkscape:cx="70.940436"
     inkscape:cy="11.972315"
     inkscape:current-layer="svg20" />
  <path
     d="M141 5H137V21H141V5Z"
     fill="#333333"
     id="path2"
     style="filter:url(#filter903)" />
  <path
     d="M118 21H123.566C125.67 21 127.688 20.1571 129.176 18.6569C130.664 17.1566 131.5 15.1217 131.5 13C131.5 10.8783 130.664 8.84344 129.176 7.34315C127.688 5.84285 125.67 5 123.566 5H118V21ZM121.577 17.7097V8.29032H123.566C126.228 8.29032 128.045 10.429 128.045 13C128.045 15.571 126.238 17.7097 123.566 17.7097H121.577Z"
     fill="#333333"
     id="path4"
     style="filter:url(#filter899)" />
  <path
     d="M102 21H113V17.5H106V5H102V21Z"
     fill="#333333"
     id="path6"
     style="filter:url(#filter895)" />
  <path
     d="M87.4818 15.6507L89.0131 12.3525L90.5444 15.6507H87.4818ZM81 21H84.838L86.0061 18.5502H91.9939L93.162 21H97L89.0131 5L81 21Z"
     fill="#333333"
     id="path8"
     style="filter:url(#filter891)" />
  <path
     d="M72.4984 21L80 5H76.0137L72.4984 12.9091L68.9831 5H65L72.4984 21Z"
     fill="#333333"
     id="path10"
     style="filter:url(#filter887)" />
  <path
     d="M60 5H56V21H60V5Z"
     fill="#333333"
     id="path12"
     style="filter:url(#filter883)" />
  <path
     d="M43.5015 21L50.9999 5H47.0168L43.5015 12.9091L39.9862 5H35.9999L43.5015 21Z"
     fill="#333333"
     id="path14"
     style="filter:url(#filter879)" />
  <path
     fill-rule="evenodd"
     clip-rule="evenodd"
     d="M12 24C17.2584 24 20.1818 24 22.0907 22.0907C24 20.1814 24 17.258 24 12C24 6.74161 24 3.8182 22.0907 1.90928C20.1818 0 17.2584 0 12 0C6.74161 0 3.81856 0 1.90928 1.90928C0 3.8182 0 6.74161 0 12C0 17.258 0 20.1814 1.90928 22.0907C3.81856 24 6.74161 24 12 24Z"
     fill="#4C70F0"
     id="path16"
     style="filter:url(#filter1723)" />
  <path
     fill-rule="evenodd"
     clip-rule="evenodd"
     d="M17.6601 9.70673C16.1922 12.2611 14.7228 14.8137 13.257 17.3692C12.9848 17.8438 12.589 18.1311 12.0459 18.1705C11.4373 18.2145 10.9595 17.9577 10.6529 17.4297C9.72403 15.8289 8.80558 14.2216 7.88319 12.6172C7.32224 11.6407 6.75913 10.6657 6.20069 9.6881C5.63722 8.70195 6.27269 7.50339 7.40319 7.44536C8.00033 7.41455 8.46063 7.69001 8.76367 8.20942C9.17776 8.91974 9.58433 9.63437 9.99412 10.3468C10.2896 10.8602 10.5791 11.3771 10.8832 11.885C11.3231 12.6222 11.97 13.0381 12.8308 13.0897C14.0494 13.1624 15.181 12.2787 15.3268 10.9805C15.3379 10.8831 15.345 10.7864 15.3493 10.7366C15.3429 10.3164 15.2644 9.96249 15.0979 9.62864C14.643 8.71556 15.1276 7.69252 16.117 7.47294C16.9226 7.29455 17.7561 7.88774 17.8629 8.70697C17.9095 9.06697 17.8385 9.39688 17.6601 9.70673ZM18.1932 5.60882C14.7175 2.13025 9.08248 2.13025 5.60678 5.60882C2.13107 9.08739 2.13107 14.7274 5.60678 18.2056C9.08248 21.6842 14.7175 21.6842 18.1932 18.2056C21.6689 14.7274 21.6689 9.08739 18.1932 5.60882Z"
     fill="white"
     id="path18"
     style="filter:url(#filter1729)" />
</svg>
